<?xml version="1.0" encoding="utf-8"?>
<!-- Generator: Adobe Illustrator 20.1.0, SVG Export Plug-In . SVG Version: 6.00 Build 0)  -->
<svg version="1.1" id="Layer_1" xmlns="http://www.w3.org/2000/svg" xmlns:xlink="http://www.w3.org/1999/xlink" x="0px" y="0px"
	 viewBox="0 0 1440 1440" style="enable-background:new 0 0 1440 1440;" xml:space="preserve">
<style type="text/css">
	.st0{display:none;}
	.st1{display:inline;}
</style>
<g class="st0">
	<g class="st1">
		<path d="M685.6,489.1c0,1.1,0.1,2.7,0.3,4.9l-24.8-43h-18.4v72.8H656v-43.6c0-0.9-0.1-1.9-0.2-3.1c0-0.4-0.1-1.2-0.1-2.5
			l28.5,49.2h14.6v-43.7V451h-13.2V489.1z"/>
		<path d="M728.2,451v38.1c0,1.1,0.1,2.7,0.3,4.9l-24.8-43h-5v23.6l28.1,49.2h14.6V451H728.2z"/>
	</g>
	<g class="st1">
		<path d="M757.2,523.9c-1.4,0-2.8-0.3-4-0.8c-1.2-0.5-2.2-1.3-3.1-2.2c-0.9-0.9-1.6-2-2.1-3.2c-0.5-1.2-0.7-2.5-0.7-3.9v-0.1
			c0-1.4,0.2-2.7,0.7-3.9c0.5-1.2,1.2-2.3,2.1-3.2c0.9-0.9,2-1.7,3.2-2.2c1.2-0.5,2.5-0.8,4-0.8c1.4,0,2.8,0.3,4,0.8
			c1.2,0.5,2.2,1.3,3.1,2.2c0.9,0.9,1.6,2,2.1,3.2c0.5,1.2,0.7,2.5,0.7,3.9v0.1c0,1.4-0.2,2.7-0.7,3.9s-1.2,2.3-2.1,3.2
			c-0.9,0.9-2,1.7-3.2,2.2C760,523.6,758.7,523.9,757.2,523.9z M757.3,522.1c1.1,0,2.2-0.2,3.2-0.7c1-0.4,1.8-1,2.5-1.8
			c0.7-0.7,1.2-1.6,1.6-2.6c0.4-1,0.6-2.1,0.6-3.2v-0.1c0-1.2-0.2-2.3-0.6-3.3c-0.4-1-1-1.9-1.7-2.7c-0.7-0.8-1.6-1.3-2.6-1.8
			c-1-0.4-2-0.6-3.1-0.6c-1.1,0-2.2,0.2-3.2,0.7c-1,0.4-1.8,1-2.5,1.8c-0.7,0.7-1.2,1.6-1.6,2.6c-0.4,1-0.6,2.1-0.6,3.2v0.1
			c0,1.2,0.2,2.3,0.6,3.3c0.4,1,1,1.9,1.7,2.7c0.7,0.8,1.6,1.3,2.6,1.8C755.2,521.9,756.2,522.1,757.3,522.1z"/>
		<path d="M781.2,523.9c-1.3,0-2.5-0.2-3.6-0.7c-1.2-0.5-2.2-1.2-3-2.1c-0.9-0.9-1.6-2-2.1-3.2c-0.5-1.2-0.8-2.6-0.8-4.1v-0.1
			c0-1.4,0.2-2.7,0.7-3.9c0.5-1.2,1.1-2.3,1.9-3.2c0.8-0.9,1.8-1.6,2.9-2.2c1.1-0.5,2.3-0.8,3.6-0.8c1.4,0,2.6,0.3,3.7,0.8
			c1.1,0.5,2,1.2,2.8,2.1c0.8,0.9,1.4,2,1.8,3.2c0.4,1.2,0.6,2.6,0.6,4c0,0.2,0,0.3,0,0.4c0,0.1,0,0.2,0,0.4h-16.1
			c0.1,1.2,0.3,2.3,0.8,3.2c0.5,0.9,1,1.7,1.7,2.4c0.7,0.7,1.5,1.2,2.3,1.5c0.9,0.3,1.8,0.5,2.8,0.5c1.5,0,2.8-0.3,3.9-0.9
			c1.1-0.6,2-1.3,2.8-2.2l1.3,1.1c-1,1.1-2.1,1.9-3.4,2.6C784.6,523.5,783,523.9,781.2,523.9z M787.8,512.8c-0.1-1-0.3-1.9-0.6-2.8
			c-0.3-0.9-0.8-1.7-1.3-2.4c-0.6-0.7-1.3-1.3-2.1-1.7s-1.8-0.6-2.9-0.6c-1,0-1.9,0.2-2.7,0.6c-0.8,0.4-1.6,0.9-2.2,1.6
			c-0.6,0.7-1.1,1.5-1.5,2.4c-0.4,0.9-0.6,1.9-0.7,3H787.8z"/>
		<path d="M795.4,495.7h1.9v27.7h-1.9V495.7z"/>
	</g>
</g>
<g class="st0">
	<path class="st1" d="M643,691.3c-0.2-0.1-0.3-0.2-0.3-0.3c0-0.3,0.3-0.5,0.8-0.6c1-0.2,1.8-0.5,2.3-0.9c0.5-0.4,0.8-1,0.8-1.8
		v-17.4c0-0.6-0.1-1-0.2-1.3c-0.1-0.3-0.3-0.5-0.6-0.6c-0.3-0.1-0.8-0.3-1.5-0.4c-0.8-0.2-1.2-0.4-1.2-0.8c0-0.3,0.4-0.4,1.1-0.4
		c0.8,0,1.5,0,2.3,0.1l1.9,0l2.3,0c1-0.1,1.8-0.1,2.5-0.1c0.7,0,1.1,0.1,1.1,0.4c0,0.4-0.4,0.6-1.2,0.8c-1.2,0.2-2,0.5-2.6,0.7
		c-0.5,0.3-0.8,0.7-0.8,1.4v17.7c0,0.8,0.2,1.4,0.6,1.8c0.4,0.4,1.2,0.5,2.3,0.5h4.7c0.6,0,1.2-0.1,1.7-0.3c0.5-0.2,0.9-0.4,1.2-0.7
		c0.5-0.4,0.9-0.8,1.1-1.1c0.2-0.3,0.5-0.8,0.8-1.5c0.1-0.3,0.2-0.5,0.4-0.8c0.2-0.3,0.3-0.4,0.5-0.4c0.2,0,0.3,0.1,0.3,0.2
		c0.1,0.1,0.1,0.3,0.1,0.5l0,0.2c-0.3,1.2-0.6,2.1-0.7,2.8c-0.1,0.6-0.2,1.3-0.3,2c-0.1,0.4-0.2,0.6-0.5,0.6c-2.7,0-5.2,0-7.4-0.1
		c-2.6-0.1-4.4-0.1-5.5-0.1c-0.8,0-1.7,0-2.9,0.1c-1.1,0-1.9,0.1-2.2,0.1C643.4,691.5,643.2,691.4,643,691.3z"/>
	<path class="st1" d="M666.7,691.3c-0.5-0.3-0.9-0.8-1.2-1.3c-0.3-0.5-0.5-1-0.5-1.4c0-0.8,0.2-1.4,0.6-1.8c0.4-0.5,1.1-0.9,2-1.3
		l3.8-1.6c0.5-0.2,0.8-0.4,0.9-0.5c0.1-0.2,0.2-0.5,0.2-1l0.1-2.4c0-0.7-0.2-1.2-0.6-1.7c-0.4-0.5-1-0.7-1.7-0.7
		c-0.4,0-0.8,0.1-1.1,0.2c-0.4,0.1-0.7,0.3-0.9,0.5c-0.3,0.2-0.4,0.5-0.4,1.1l0,0.7c0,0.2-0.3,0.5-1,0.8c-0.6,0.3-1.1,0.5-1.5,0.5
		c-0.1,0-0.2,0-0.3-0.1c-0.1-0.1-0.1-0.1-0.1-0.2c0-0.4,0.1-0.8,0.4-1.3c0.3-0.5,0.6-0.9,1.1-1.3c0.9-0.8,1.8-1.4,2.9-1.9
		c1.1-0.5,2-0.8,2.7-0.8c0.9,0,1.6,0.3,2.2,1c0.6,0.6,0.9,1.4,0.8,2.4l-0.2,9c0,0.5,0.1,1,0.3,1.3c0.3,0.3,0.6,0.5,1,0.5
		c0.6,0,1.1-0.1,1.4-0.4c0.1-0.1,0.2-0.2,0.3-0.2c0.1,0,0.2,0,0.3,0.1c0.1,0.1,0.1,0.2,0.1,0.3c0,0.1,0,0.2-0.1,0.4
		c-0.1,0.2-0.2,0.3-0.3,0.4c-0.4,0.4-0.8,0.7-1.3,1c-0.5,0.2-0.9,0.4-1.3,0.4c-1.2,0-2.1-0.7-2.7-2h-0.1c-0.8,0.7-1.6,1.2-2.4,1.5
		c-0.8,0.3-1.5,0.5-2.3,0.5C667.6,691.8,667.2,691.6,666.7,691.3z M672,689.1c0.2-0.2,0.3-0.3,0.3-0.6c0.1-0.2,0.1-0.6,0.2-1
		l0.1-1.8v-0.2c0-0.2,0-0.3-0.1-0.4c-0.1-0.1-0.1-0.1-0.3-0.1c-0.2,0-0.4,0.1-0.8,0.2c-1.3,0.5-2.2,0.9-2.7,1.4
		c-0.6,0.5-0.8,1-0.8,1.5c0,0.6,0.2,1.1,0.5,1.5c0.4,0.4,0.8,0.5,1.3,0.5C670.7,690,671.4,689.7,672,689.1z"/>
	<path class="st1" d="M686.1,691.9l-5.2-13c-0.2-0.5-0.4-0.9-0.8-1.2c-0.4-0.3-0.7-0.5-1.1-0.7c-0.3-0.1-0.5-0.2-0.7-0.3
		c-0.1-0.1-0.2-0.2-0.2-0.4c0-0.2,0.3-0.3,0.8-0.3c0.3,0,0.8,0,1.4,0.1c0.5,0.1,0.9,0.1,1.4,0.1c0.5,0,1.1,0,1.6-0.1
		c0.7,0,1.2-0.1,1.5-0.1c0.2,0,0.3,0,0.5,0.1c0.2,0.1,0.2,0.1,0.2,0.3c0,0.2-0.1,0.3-0.2,0.4c-0.1,0.1-0.4,0.2-0.7,0.3
		c-0.3,0.1-0.4,0.3-0.6,0.5c-0.1,0.3-0.2,0.6-0.2,1c0,0.3,0.1,0.7,0.2,1l2.9,7.6c0,0.1,0.1,0.2,0.2,0.2c0.1,0,0.2-0.1,0.2-0.2
		l2.6-6.1c0.2-0.5,0.3-1.1,0.3-1.8c0-0.5-0.2-0.9-0.6-1.3c-0.4-0.4-0.8-0.6-1.4-0.8c-0.3-0.1-0.5-0.2-0.7-0.3
		c-0.1-0.1-0.2-0.2-0.2-0.4c0-0.2,0.3-0.3,0.8-0.3c0.2,0,0.5,0,0.9,0.1c1,0.1,1.6,0.1,1.9,0.1c0.2,0,0.9,0,2-0.1
		c0.6,0,0.9-0.1,1.2-0.1c0.5,0,0.8,0.1,0.8,0.3c0,0.2-0.1,0.3-0.2,0.4c-0.1,0.1-0.4,0.2-0.7,0.3c-0.4,0.1-0.7,0.3-0.9,0.5
		c-0.2,0.2-0.3,0.5-0.3,0.9c0,0.3,0.1,0.7,0.3,1.1l2.8,7.3c0.1,0.3,0.2,0.4,0.3,0.4c0.1,0,0.2-0.1,0.3-0.4l2.9-6.7
		c0.2-0.4,0.3-0.9,0.3-1.5c0-0.4-0.1-0.8-0.4-1.1c-0.3-0.3-0.6-0.5-0.9-0.6c-0.3-0.1-0.5-0.2-0.7-0.3c-0.1-0.1-0.2-0.2-0.2-0.4
		c0-0.2,0.3-0.3,0.8-0.3c0.3,0,0.7,0,1.2,0.1c0.4,0.1,0.9,0.1,1.6,0.1c0.4,0,0.9,0,1.4-0.1c0.3,0,0.6-0.1,0.8-0.1
		c0.5,0,0.8,0.1,0.8,0.3c0,0.2-0.1,0.3-0.2,0.4c-0.1,0.1-0.4,0.2-0.7,0.3c-0.4,0.1-0.7,0.4-1.1,0.8c-0.4,0.5-0.7,1-0.9,1.6
		l-5.2,12.3c-0.1,0.2-0.2,0.3-0.3,0.3c-0.1,0-0.2-0.1-0.3-0.3l-3.9-9.7c-0.1-0.2-0.2-0.3-0.2-0.3c-0.1,0-0.2,0.1-0.3,0.4l-4.1,9.7
		c-0.1,0.2-0.2,0.3-0.3,0.3C686.3,692.1,686.2,692.1,686.1,691.9z"/>
	<path class="st1" d="M719.2,690.2c-1.9-1-3.4-2.5-4.6-4.4c-1.1-1.9-1.7-4-1.7-6.4c0-2.3,0.5-4.5,1.5-6.5c1-2,2.5-3.6,4.4-4.8
		c1.9-1.2,4.2-1.8,6.9-1.8c2.2,0,4.3,0.5,6.2,1.6c1.9,1,3.4,2.5,4.6,4.4c1.1,1.9,1.7,4,1.7,6.4c0,2.3-0.5,4.5-1.5,6.5
		c-1,2-2.5,3.6-4.4,4.8c-1.9,1.2-4.2,1.8-6.9,1.8C723.1,691.8,721.1,691.3,719.2,690.2z M732.3,687.7c1.5-1.7,2.2-4.1,2.2-7.2
		c0-2.4-0.4-4.5-1.1-6.4c-0.7-1.9-1.8-3.4-3.2-4.5c-1.4-1.1-3.1-1.7-5.2-1.7c-2.8,0-4.9,0.9-6.4,2.6c-1.5,1.7-2.2,4.1-2.2,7.1
		c0,2.4,0.4,4.5,1.1,6.5c0.7,1.9,1.8,3.5,3.2,4.6c1.4,1.1,3.1,1.7,5.2,1.7C728.7,690.3,730.9,689.4,732.3,687.7z"/>
	<path class="st1" d="M768.1,690.7c0.1,0.1,0.2,0.2,0.2,0.4c0,0.2-0.3,0.3-0.8,0.3c-0.7,0-1.2,0-1.6-0.1c-0.6,0-1-0.1-1.4-0.1
		c-0.4,0-0.9,0-1.4,0.1c-0.4,0.1-0.9,0.1-1.6,0.1c-0.5,0-0.8-0.1-0.8-0.3c0-0.2,0.1-0.3,0.2-0.4c0.1-0.1,0.4-0.2,0.7-0.3
		c0.5-0.2,0.9-0.3,1.2-0.6c0.3-0.2,0.4-0.6,0.4-1.1v-7.9c0-0.7-0.2-1.3-0.5-1.8c-0.3-0.5-0.8-0.8-1.4-0.9c-0.1,0-0.8,0-2,0
		c-1.1,0-1.8,0-2.3,0c-0.7,0-1.1,0.1-1.3,0.2c-0.2,0.1-0.2,0.3-0.2,0.5v9.9c0,0.5,0.1,0.8,0.4,1.1c0.3,0.2,0.7,0.4,1.2,0.6
		c0.3,0.1,0.5,0.2,0.7,0.3c0.1,0.1,0.2,0.2,0.2,0.4c0,0.2-0.3,0.3-0.8,0.3c-0.7,0-1.2,0-1.6-0.1c-0.6,0-1-0.1-1.4-0.1
		c-0.4,0-0.9,0-1.4,0.1c-0.4,0.1-0.9,0.1-1.6,0.1c-0.5,0-0.8-0.1-0.8-0.3c0-0.2,0.1-0.3,0.2-0.4c0.1-0.1,0.4-0.2,0.7-0.3
		c0.5-0.2,0.9-0.3,1.2-0.6c0.3-0.2,0.4-0.6,0.4-1.1v-10.6c-0.1,0-0.3,0-0.7,0c-0.4,0-0.8,0-1.2-0.1h-3.6c-0.6,0-1,0.1-1.2,0.2
		c-0.2,0.1-0.3,0.3-0.3,0.5v10c0,0.5,0.2,0.8,0.5,1.1c0.3,0.3,0.7,0.5,1.1,0.6c0.3,0.1,0.5,0.2,0.7,0.2c0.1,0.1,0.2,0.2,0.2,0.4
		c0,0.3-0.3,0.4-0.8,0.4c-0.7,0-1.2,0-1.6-0.1c-0.5,0-1-0.1-1.4-0.1c-0.5,0-0.9,0-1.4,0.1c-0.5,0.1-1,0.1-1.7,0.1
		c-0.5,0-0.8-0.1-0.8-0.4c0-0.2,0.1-0.3,0.2-0.4c0.1-0.1,0.4-0.1,0.7-0.2c1.1-0.3,1.6-0.9,1.6-1.7v-10.6c-0.8,0-1.4,0-2-0.1
		c-0.1,0-0.2-0.1-0.3-0.3c-0.1-0.2-0.2-0.3-0.2-0.4c0-0.1,0.1-0.2,0.3-0.2c0.6-0.2,1-0.3,1.4-0.5c0.4-0.2,0.7-0.4,0.8-0.5
		c0-2.2,0.4-4,1.3-5.5c0.9-1.5,2-2.6,3.2-3.3c1.3-0.7,2.5-1.1,3.7-1.1c1,0,1.8,0.1,2.5,0.4c0.7,0.3,1.2,0.6,1.6,1
		c0.9-1,1.9-1.8,3.1-2.3c1.2-0.5,2.3-0.7,3.3-0.7c1.3,0,2.5,0.2,3.4,0.6c1,0.4,1.4,1,1.4,1.9c0,0.7-0.2,1.1-0.5,1.5
		c-0.4,0.3-0.8,0.5-1.3,0.5c-0.3,0-0.5-0.1-0.6-0.2c-0.2-0.2-0.3-0.3-0.5-0.5c-0.2-0.2-0.3-0.3-0.3-0.4c-0.4-0.5-0.8-0.9-1.3-1.3
		c-0.5-0.3-1.1-0.5-1.9-0.5c-0.9,0-1.6,0.3-2.4,0.8c-0.7,0.5-1.3,1.3-1.8,2.4c-0.5,1.1-0.7,2.4-0.7,4v2.1c0,0.3,0.1,0.5,0.2,0.5
		c0.2,0.1,0.4,0.2,0.7,0.2c1.6,0.2,3.1,0.3,4.4,0.3c1.5,0,2.4-0.1,2.8-0.3c0.2-0.1,0.3-0.2,0.5-0.3c0.2-0.1,0.4-0.3,0.7-0.4l0.8-0.5
		c0,0,0.1,0,0.2,0c0.2,0,0.3,0.1,0.3,0.2c0,0.2-0.1,0.7-0.2,1.6c-0.1,0.9-0.1,2.3-0.1,4.2v7.8c0,0.5,0.1,0.8,0.4,1.1
		c0.3,0.2,0.7,0.4,1.2,0.6C767.7,690.5,768,690.6,768.1,690.7z M752.8,676.2l0.2-0.1c0-2.5,0.4-4.6,1.3-6.3
		c-0.1-0.1-0.3-0.2-0.5-0.4c-0.2-0.2-0.3-0.3-0.4-0.4c-0.9-0.9-1.9-1.3-3.2-1.3c-1.3,0-2.4,0.6-3.1,1.7c-0.8,1.2-1.1,3-1.1,5.4v0.4
		c0,0.6,0.3,0.8,0.9,0.8H752.8z"/>
	<path class="st1" d="M773.6,690.9c-1-0.6-1.8-1.5-2.4-2.6c-0.6-1.1-0.9-2.4-0.9-3.7c0-1.6,0.4-3.1,1.1-4.4c0.7-1.3,1.7-2.4,2.9-3.2
		c1.2-0.8,2.5-1.2,4-1.2c1.6,0,3.1,0.4,4.3,1.3c0.3,0.2,0.5,0.5,0.5,0.7c0,0.3-0.2,0.7-0.6,1c-0.4,0.4-0.7,0.5-1.1,0.5
		c-0.1,0-0.3,0-0.4-0.1c-0.1-0.1-0.3-0.2-0.4-0.3c-0.6-0.5-1.3-0.9-1.9-1.2c-0.7-0.4-1.2-0.5-1.6-0.5c-1.2,0-2.2,0.6-3,1.7
		c-0.8,1.2-1.1,2.6-1.1,4.5c0,1.2,0.3,2.2,0.8,3.2c0.5,1,1.2,1.7,2.1,2.3c0.9,0.6,1.8,0.8,2.9,0.8c0.7,0,1.4-0.1,1.9-0.4
		c0.5-0.2,1.1-0.7,1.7-1.3c0.1-0.1,0.3-0.2,0.4-0.2c0.1,0,0.2,0.1,0.3,0.2c0.1,0.1,0.1,0.2,0.1,0.4c0,0.3-0.2,0.7-0.6,1.2
		c-0.6,0.8-1.4,1.4-2.3,1.8c-0.9,0.4-2,0.6-3.1,0.6C775.8,691.8,774.6,691.5,773.6,690.9z"/>
	<path class="st1" d="M788,690.8c-1-0.7-1.8-1.6-2.4-2.9c-0.6-1.2-0.9-2.7-0.9-4.3c0-1.4,0.3-2.7,1-3.9c0.7-1.2,1.5-2.2,2.7-2.9
		c1.1-0.7,2.3-1.1,3.6-1.1c1.5,0,2.7,0.4,3.7,1.3c1,0.9,1.4,2,1.4,3.4c0,0.8-0.4,1.2-1.1,1.2H788c-0.4,0-0.6,0.1-0.7,0.3
		c-0.1,0.2-0.2,0.6-0.2,1.1c0,1.2,0.3,2.3,0.8,3.3c0.5,1,1.2,1.8,2.1,2.4c0.9,0.6,1.9,0.9,2.9,0.9c1.5,0,2.7-0.6,3.7-1.7
		c0.2-0.2,0.3-0.3,0.4-0.3c0.2,0,0.3,0.1,0.3,0.4c0,0.5-0.2,1-0.7,1.6c-0.6,0.7-1.3,1.3-2.2,1.7s-1.9,0.6-2.9,0.6
		C790.2,691.8,789,691.5,788,690.8z M791.5,680.5c1.2,0,2.1-0.1,2.8-0.2c0.2,0,0.3-0.3,0.3-0.8c0-0.7-0.3-1.3-1-1.9
		c-0.6-0.5-1.4-0.8-2.3-0.8c-0.6,0-1.1,0.2-1.7,0.5c-0.6,0.3-1.1,0.8-1.4,1.3c-0.4,0.5-0.6,1-0.6,1.5c0,0.3,0.2,0.4,0.5,0.4H791.5z"
		/>
</g>
<g class="st0">
	<path class="st1" d="M642.7,532.3h1.6v19.5h12.3v1.4h-13.8V532.3z"/>
	<path class="st1" d="M665.5,553.5c-0.7,0-1.4-0.1-2.1-0.3c-0.7-0.2-1.3-0.5-1.9-0.9c-0.6-0.4-1-0.9-1.4-1.5
		c-0.3-0.6-0.5-1.3-0.5-2.1v-0.1c0-0.8,0.2-1.5,0.5-2.1c0.3-0.6,0.8-1.1,1.4-1.6c0.6-0.4,1.3-0.7,2.1-1c0.8-0.2,1.7-0.3,2.7-0.3
		c1.1,0,2,0.1,2.8,0.2c0.8,0.1,1.5,0.3,2.3,0.5v-0.7c0-1.5-0.4-2.7-1.3-3.5c-0.9-0.8-2.1-1.2-3.7-1.2c-0.9,0-1.8,0.1-2.6,0.3
		c-0.8,0.2-1.5,0.5-2.2,0.9L661,539c0.8-0.4,1.7-0.7,2.5-1c0.9-0.2,1.8-0.4,2.9-0.4c2.1,0,3.7,0.6,4.8,1.7c1,1,1.6,2.5,1.6,4.3v9.5
		h-1.4v-2.5c-0.3,0.4-0.6,0.7-0.9,1.1c-0.4,0.3-0.8,0.7-1.3,0.9c-0.5,0.3-1,0.5-1.6,0.7C666.9,553.4,666.2,553.5,665.5,553.5z
		 M665.6,552.1c0.8,0,1.5-0.1,2.2-0.3c0.7-0.2,1.3-0.5,1.8-1c0.5-0.4,0.9-0.9,1.3-1.5c0.3-0.6,0.5-1.2,0.5-1.9v-1.7
		c-0.6-0.2-1.4-0.3-2.2-0.5c-0.9-0.1-1.8-0.2-2.9-0.2c-1.6,0-2.9,0.3-3.7,1c-0.9,0.6-1.3,1.5-1.3,2.6v0.1c0,0.6,0.1,1,0.4,1.5
		c0.2,0.4,0.6,0.8,1,1.1c0.4,0.3,0.9,0.5,1.4,0.7S665,552.1,665.6,552.1z"/>
	<path class="st1" d="M676.7,537.9h1.6l4.6,13.4l4.6-13.4h1.2l4.6,13.4l4.6-13.4h1.6l-5.6,15.3h-1.3l-4.5-13l-4.6,13h-1.3
		L676.7,537.9z"/>
	<path class="st1" d="M722.5,553.5c-1.6,0-3-0.3-4.3-0.9c-1.3-0.6-2.4-1.4-3.3-2.4c-0.9-1-1.6-2.1-2.1-3.4c-0.5-1.3-0.7-2.7-0.7-4.1
		v-0.1c0-1.4,0.3-2.8,0.8-4.1c0.5-1.3,1.2-2.5,2.1-3.4c0.9-1,2-1.8,3.3-2.4c1.3-0.6,2.7-0.9,4.3-0.9c1.6,0,3,0.3,4.3,0.9
		c1.3,0.6,2.4,1.4,3.3,2.4c0.9,1,1.6,2.1,2.1,3.4c0.5,1.3,0.7,2.7,0.7,4.1c0,0,0,0,0,0.1c0,1.4-0.3,2.8-0.8,4.1
		c-0.5,1.3-1.2,2.5-2.1,3.4c-0.9,1-2,1.8-3.3,2.4C725.5,553.2,724.1,553.5,722.5,553.5z M722.6,552.1c1.3,0,2.5-0.2,3.6-0.7
		c1.1-0.5,2-1.2,2.8-2c0.8-0.8,1.4-1.8,1.8-3c0.4-1.1,0.7-2.3,0.7-3.6v-0.1c0-1.3-0.2-2.5-0.7-3.7c-0.4-1.1-1.1-2.1-1.9-3
		c-0.8-0.8-1.7-1.5-2.8-2c-1.1-0.5-2.3-0.7-3.6-0.7c-1.3,0-2.5,0.2-3.6,0.7c-1.1,0.5-2,1.2-2.8,2c-0.8,0.8-1.4,1.8-1.8,3
		c-0.4,1.1-0.7,2.3-0.7,3.6v0.1c0,1.3,0.2,2.5,0.7,3.7c0.4,1.1,1.1,2.1,1.9,3c0.8,0.8,1.7,1.5,2.8,2
		C720.1,551.9,721.3,552.1,722.6,552.1z"/>
	<path class="st1" d="M738.9,539.3h-2.2v-1.3h2.2v-1.5c0-1.8,0.4-3.1,1.3-4c0.8-0.8,1.9-1.2,3.2-1.2c0.5,0,0.9,0,1.2,0.1
		c0.4,0.1,0.7,0.1,1,0.3v1.4c-0.4-0.1-0.8-0.2-1.2-0.3c-0.3-0.1-0.7-0.1-1.1-0.1c-2.1,0-3.1,1.3-3.1,3.9v1.5h5.3v1.3h-5.3v13.9h-1.5
		V539.3z"/>
	<path class="st1" d="M749.7,539.3h-2.2v-1.3h2.2v-1.5c0-1.8,0.4-3.1,1.3-4c0.8-0.8,1.9-1.2,3.2-1.2c0.5,0,0.9,0,1.2,0.1
		c0.4,0.1,0.7,0.1,1,0.3v1.4c-0.4-0.1-0.8-0.2-1.2-0.3c-0.3-0.1-0.7-0.1-1.1-0.1c-2.1,0-3.1,1.3-3.1,3.9v1.5h5.3v1.3h-5.3v13.9h-1.5
		V539.3z M759.7,532h1.8v2h-1.8V532z M759.9,537.9h1.5v15.2h-1.5V537.9z"/>
	<path class="st1" d="M773.8,553.5c-1.1,0-2.1-0.2-3.1-0.6c-0.9-0.4-1.8-1-2.5-1.7c-0.7-0.7-1.2-1.6-1.6-2.5c-0.4-1-0.6-2-0.6-3
		v-0.1c0-1.1,0.2-2.1,0.6-3c0.4-1,0.9-1.8,1.6-2.5c0.7-0.7,1.5-1.3,2.5-1.7c0.9-0.4,2-0.6,3.1-0.6c0.7,0,1.4,0.1,2,0.2
		c0.6,0.2,1.1,0.4,1.6,0.6c0.5,0.3,1,0.6,1.4,0.9c0.4,0.3,0.8,0.7,1.1,1.1l-1,1.1c-0.7-0.7-1.4-1.3-2.2-1.8
		c-0.8-0.5-1.8-0.7-2.9-0.7c-0.9,0-1.7,0.2-2.4,0.5c-0.7,0.3-1.4,0.8-1.9,1.4c-0.5,0.6-1,1.3-1.3,2.1c-0.3,0.8-0.5,1.6-0.5,2.6v0.1
		c0,0.9,0.2,1.8,0.5,2.6c0.3,0.8,0.8,1.5,1.3,2.1c0.6,0.6,1.2,1.1,2,1.4c0.8,0.3,1.6,0.5,2.4,0.5c1.1,0,2-0.2,2.9-0.7
		c0.8-0.5,1.6-1.1,2.2-1.8l1,0.9c-0.8,0.9-1.7,1.6-2.6,2.2S775.2,553.5,773.8,553.5z"/>
	<path class="st1" d="M790.6,553.5c-1,0-2-0.2-2.9-0.6c-0.9-0.4-1.7-0.9-2.4-1.6c-0.7-0.7-1.2-1.5-1.6-2.5c-0.4-1-0.6-2.1-0.6-3.3
		v-0.1c0-1.1,0.2-2.1,0.6-3.1c0.4-1,0.9-1.8,1.5-2.5c0.6-0.7,1.4-1.3,2.3-1.7c0.9-0.4,1.8-0.6,2.9-0.6c1.1,0,2,0.2,2.9,0.6
		c0.9,0.4,1.6,1,2.2,1.7c0.6,0.7,1.1,1.6,1.4,2.5c0.3,1,0.5,2,0.5,3.1c0,0.1,0,0.2,0,0.3c0,0.1,0,0.2,0,0.3h-12.6
		c0.1,1,0.3,1.8,0.6,2.5c0.4,0.7,0.8,1.4,1.3,1.9c0.5,0.5,1.2,0.9,1.8,1.2c0.7,0.3,1.4,0.4,2.2,0.4c1.2,0,2.2-0.2,3-0.7
		c0.8-0.5,1.6-1,2.2-1.7l1,0.9c-0.8,0.8-1.7,1.5-2.6,2.1C793.2,553.2,792,553.5,790.6,553.5z M795.7,544.8c-0.1-0.8-0.2-1.5-0.5-2.2
		c-0.2-0.7-0.6-1.3-1-1.9c-0.4-0.5-1-1-1.7-1.3c-0.7-0.3-1.4-0.5-2.3-0.5c-0.8,0-1.5,0.1-2.1,0.4c-0.7,0.3-1.2,0.7-1.7,1.2
		c-0.5,0.5-0.9,1.2-1.2,1.9c-0.3,0.7-0.5,1.5-0.6,2.3H795.7z"/>
</g>
<g class="st0">
	<g class="st1">
		<path d="M685.6,622.1c0,1.1,0.1,2.7,0.3,4.9l-24.8-43h-18.4v72.8H656v-43.6c0-0.9-0.1-1.9-0.2-3.1c0-0.4-0.1-1.2-0.1-2.5
			l28.5,49.2h14.6v-43.7V584h-13.2V622.1z"/>
		<path d="M728.2,584v38.1c0,1.1,0.1,2.7,0.3,4.9l-24.8-43h-5v23.6l28.1,49.2h14.6V584H728.2z"/>
	</g>
	<g class="st1">
		<path d="M757.2,656.9c-1.4,0-2.8-0.3-4-0.8c-1.2-0.5-2.2-1.3-3.1-2.2c-0.9-0.9-1.6-2-2.1-3.2c-0.5-1.2-0.7-2.5-0.7-3.9v-0.1
			c0-1.4,0.2-2.7,0.7-3.9c0.5-1.2,1.2-2.3,2.1-3.2c0.9-0.9,2-1.7,3.2-2.2c1.2-0.5,2.5-0.8,4-0.8c1.4,0,2.8,0.3,4,0.8
			c1.2,0.5,2.2,1.3,3.1,2.2c0.9,0.9,1.6,2,2.1,3.2c0.5,1.2,0.7,2.5,0.7,3.9v0.1c0,1.4-0.2,2.7-0.7,3.9s-1.2,2.3-2.1,3.2
			c-0.9,0.9-2,1.7-3.2,2.2C760,656.6,758.7,656.9,757.2,656.9z M757.3,655.1c1.1,0,2.2-0.2,3.2-0.7c1-0.4,1.8-1,2.5-1.8
			c0.7-0.7,1.2-1.6,1.6-2.6c0.4-1,0.6-2.1,0.6-3.2v-0.1c0-1.2-0.2-2.3-0.6-3.3c-0.4-1-1-1.9-1.7-2.7c-0.7-0.8-1.6-1.3-2.6-1.8
			c-1-0.4-2-0.6-3.1-0.6c-1.1,0-2.2,0.2-3.2,0.7c-1,0.4-1.8,1-2.5,1.8c-0.7,0.7-1.2,1.6-1.6,2.6c-0.4,1-0.6,2.1-0.6,3.2v0.1
			c0,1.2,0.2,2.3,0.6,3.3c0.4,1,1,1.9,1.7,2.7c0.7,0.8,1.6,1.3,2.6,1.8C755.2,654.9,756.2,655.1,757.3,655.1z"/>
		<path d="M781.2,656.9c-1.3,0-2.5-0.2-3.6-0.7c-1.2-0.5-2.2-1.2-3-2.1c-0.9-0.9-1.6-2-2.1-3.2c-0.5-1.2-0.8-2.6-0.8-4.1v-0.1
			c0-1.4,0.2-2.7,0.7-3.9c0.5-1.2,1.1-2.3,1.9-3.2c0.8-0.9,1.8-1.6,2.9-2.2c1.1-0.5,2.3-0.8,3.6-0.8c1.4,0,2.6,0.3,3.7,0.8
			c1.1,0.5,2,1.2,2.8,2.1c0.8,0.9,1.4,2,1.8,3.2c0.4,1.2,0.6,2.6,0.6,4c0,0.2,0,0.3,0,0.4c0,0.1,0,0.2,0,0.4h-16.1
			c0.1,1.2,0.3,2.3,0.8,3.2c0.5,0.9,1,1.7,1.7,2.4c0.7,0.7,1.5,1.2,2.3,1.5c0.9,0.3,1.8,0.5,2.8,0.5c1.5,0,2.8-0.3,3.9-0.9
			c1.1-0.6,2-1.3,2.8-2.2l1.3,1.1c-1,1.1-2.1,1.9-3.4,2.6C784.6,656.5,783,656.9,781.2,656.9z M787.8,645.8c-0.1-1-0.3-1.9-0.6-2.8
			c-0.3-0.9-0.8-1.7-1.3-2.4c-0.6-0.7-1.3-1.3-2.1-1.7s-1.8-0.6-2.9-0.6c-1,0-1.9,0.2-2.7,0.6c-0.8,0.4-1.6,0.9-2.2,1.6
			c-0.6,0.7-1.1,1.5-1.5,2.4c-0.4,0.9-0.6,1.9-0.7,3H787.8z"/>
		<path d="M795.4,628.7h1.9v27.7h-1.9V628.7z"/>
	</g>
</g>
<g>
	<path d="M648.5,825.2c-0.2-0.1-0.3-0.2-0.3-0.3c0-0.3,0.3-0.5,0.8-0.6c1-0.2,1.7-0.5,2.1-0.8c0.5-0.4,0.7-0.9,0.7-1.7v-16.2
		c0-0.6-0.1-1-0.2-1.2c-0.1-0.3-0.3-0.5-0.6-0.6c-0.3-0.1-0.7-0.2-1.4-0.3c-0.8-0.1-1.2-0.4-1.2-0.7c0-0.3,0.3-0.4,1-0.4
		c0.7,0,1.4,0,2.2,0.1l1.7,0l2.1,0c0.9,0,1.7-0.1,2.3-0.1c0.7,0,1,0.1,1,0.4c0,0.3-0.4,0.6-1.2,0.7c-1.1,0.2-1.9,0.4-2.4,0.7
		c-0.5,0.2-0.7,0.7-0.7,1.3v16.4c0,0.8,0.2,1.3,0.5,1.6c0.3,0.3,1.1,0.5,2.2,0.5h4.3c0.6,0,1.1-0.1,1.6-0.3c0.5-0.2,0.9-0.4,1.1-0.6
		c0.5-0.4,0.8-0.8,1-1.1c0.2-0.3,0.5-0.8,0.8-1.4c0.1-0.2,0.2-0.5,0.3-0.7c0.1-0.2,0.3-0.3,0.4-0.3c0.1,0,0.2,0.1,0.3,0.2
		c0.1,0.1,0.1,0.3,0.1,0.4l0,0.2c-0.3,1.1-0.5,2-0.6,2.6c-0.1,0.6-0.2,1.2-0.3,1.9c0,0.4-0.2,0.6-0.5,0.6c-2.5,0-4.8,0-6.9-0.1
		c-2.4,0-4.1-0.1-5.1-0.1c-0.7,0-1.6,0-2.7,0.1c-1,0-1.7,0.1-2.1,0.1C648.9,825.3,648.6,825.3,648.5,825.2z"/>
	<path d="M670.5,825.2c-0.4-0.3-0.8-0.7-1.1-1.2c-0.3-0.5-0.4-0.9-0.4-1.3c0-0.7,0.2-1.3,0.6-1.7c0.4-0.4,1-0.8,1.9-1.2l3.6-1.5
		c0.4-0.2,0.7-0.3,0.8-0.5c0.1-0.1,0.2-0.4,0.2-0.9l0.1-2.2c0-0.6-0.2-1.2-0.5-1.6c-0.4-0.4-0.9-0.6-1.5-0.6c-0.3,0-0.7,0.1-1,0.2
		c-0.3,0.1-0.6,0.3-0.9,0.5c-0.2,0.2-0.3,0.5-0.3,1l0,0.6c0,0.2-0.3,0.4-0.9,0.8c-0.6,0.3-1.1,0.5-1.4,0.5c-0.1,0-0.2,0-0.3-0.1
		c-0.1-0.1-0.1-0.1-0.1-0.2c0-0.4,0.1-0.8,0.4-1.2c0.2-0.4,0.6-0.8,1-1.2c0.8-0.7,1.7-1.3,2.7-1.8c1-0.5,1.8-0.7,2.5-0.7
		c0.8,0,1.5,0.3,2.1,0.9c0.5,0.6,0.8,1.3,0.8,2.2l-0.2,8.4c0,0.5,0.1,0.9,0.3,1.2c0.2,0.3,0.5,0.5,0.9,0.5c0.6,0,1-0.1,1.3-0.4
		c0.1-0.1,0.2-0.2,0.3-0.2c0.1,0,0.2,0,0.3,0.1c0.1,0.1,0.1,0.2,0.1,0.3c0,0.1,0,0.2-0.1,0.4c-0.1,0.2-0.2,0.3-0.3,0.4
		c-0.4,0.4-0.8,0.7-1.2,0.9c-0.4,0.2-0.8,0.3-1.2,0.3c-1.1,0-1.9-0.6-2.5-1.8h-0.1c-0.8,0.6-1.5,1.1-2.2,1.4
		c-0.7,0.3-1.4,0.4-2.2,0.4C671.3,825.6,670.9,825.5,670.5,825.2z M675.4,823.1c0.1-0.1,0.2-0.3,0.3-0.5c0.1-0.2,0.1-0.5,0.1-0.9
		l0.1-1.7v-0.2c0-0.2,0-0.3-0.1-0.4c0-0.1-0.1-0.1-0.2-0.1c-0.1,0-0.4,0.1-0.7,0.2c-1.2,0.4-2,0.9-2.5,1.3c-0.5,0.5-0.8,0.9-0.8,1.4
		c0,0.6,0.2,1,0.5,1.4c0.3,0.3,0.7,0.5,1.2,0.5C674.2,824,674.9,823.7,675.4,823.1z"/>
	<path d="M688.5,825.7l-4.9-12c-0.2-0.4-0.4-0.8-0.8-1.1c-0.3-0.3-0.7-0.5-1.1-0.6c-0.3-0.1-0.5-0.2-0.6-0.3
		c-0.1-0.1-0.2-0.2-0.2-0.4c0-0.2,0.2-0.3,0.7-0.3c0.3,0,0.7,0,1.3,0.1c0.4,0.1,0.8,0.1,1.3,0.1c0.5,0,1,0,1.5-0.1
		c0.6,0,1.1-0.1,1.4-0.1c0.2,0,0.3,0,0.5,0.1c0.2,0,0.2,0.1,0.2,0.2c0,0.2-0.1,0.3-0.2,0.4c-0.1,0.1-0.3,0.2-0.6,0.3
		c-0.2,0.1-0.4,0.2-0.5,0.5c-0.1,0.3-0.2,0.6-0.2,0.9c0,0.3,0.1,0.6,0.2,0.9l2.7,7c0,0.1,0.1,0.1,0.2,0.1c0.1,0,0.2,0,0.2-0.1
		l2.4-5.7c0.2-0.4,0.3-1,0.3-1.7c0-0.5-0.2-0.9-0.5-1.2c-0.3-0.3-0.8-0.6-1.3-0.8c-0.3-0.1-0.5-0.2-0.6-0.3
		c-0.1-0.1-0.2-0.2-0.2-0.4c0-0.2,0.2-0.3,0.7-0.3c0.1,0,0.4,0,0.8,0.1c0.9,0.1,1.5,0.1,1.8,0.1c0.2,0,0.8,0,1.9-0.1
		c0.5,0,0.9-0.1,1.1-0.1c0.5,0,0.7,0.1,0.7,0.3c0,0.2-0.1,0.3-0.2,0.4c-0.1,0.1-0.3,0.2-0.6,0.3c-0.4,0.1-0.7,0.3-0.9,0.4
		c-0.2,0.2-0.3,0.4-0.3,0.8c0,0.3,0.1,0.7,0.2,1l2.6,6.7c0.1,0.3,0.2,0.4,0.3,0.4c0.1,0,0.2-0.1,0.3-0.3l2.7-6.2
		c0.2-0.3,0.2-0.8,0.2-1.4c0-0.4-0.1-0.7-0.4-1c-0.3-0.3-0.5-0.5-0.8-0.6c-0.3-0.1-0.5-0.2-0.6-0.3c-0.1-0.1-0.2-0.2-0.2-0.4
		c0-0.2,0.2-0.3,0.7-0.3c0.3,0,0.7,0,1.2,0.1c0.4,0.1,0.9,0.1,1.5,0.1c0.4,0,0.8,0,1.3-0.1c0.3,0,0.5-0.1,0.7-0.1
		c0.5,0,0.7,0.1,0.7,0.3c0,0.2-0.1,0.3-0.2,0.4c-0.1,0.1-0.3,0.2-0.6,0.3c-0.3,0.1-0.7,0.4-1,0.8c-0.3,0.4-0.6,0.9-0.9,1.5
		l-4.8,11.5c-0.1,0.2-0.2,0.2-0.3,0.2c-0.1,0-0.2-0.1-0.3-0.2l-3.6-9c-0.1-0.2-0.1-0.3-0.2-0.3c-0.1,0-0.2,0.1-0.2,0.3l-3.8,9
		c-0.1,0.2-0.2,0.2-0.3,0.2C688.7,825.9,688.6,825.9,688.5,825.7z"/>
	<path d="M719.2,824.2c-1.8-1-3.2-2.3-4.3-4.1c-1.1-1.7-1.6-3.7-1.6-6c0-2.1,0.5-4.1,1.4-6c0.9-1.9,2.3-3.4,4.1-4.5
		c1.8-1.1,3.9-1.7,6.4-1.7c2,0,4,0.5,5.7,1.4s3.2,2.3,4.3,4.1c1.1,1.7,1.6,3.7,1.6,6c0,2.1-0.5,4.1-1.4,6c-0.9,1.9-2.3,3.4-4.1,4.5
		c-1.8,1.1-3.9,1.7-6.4,1.7C722.9,825.6,721,825.1,719.2,824.2z M731.5,821.8c1.4-1.6,2.1-3.8,2.1-6.7c0-2.2-0.3-4.2-1-6
		c-0.7-1.8-1.7-3.2-3-4.2c-1.3-1-2.9-1.6-4.8-1.6c-2.6,0-4.6,0.8-5.9,2.4c-1.4,1.6-2.1,3.8-2.1,6.6c0,2.2,0.3,4.2,1,6
		c0.7,1.8,1.7,3.2,3,4.3c1.3,1,2.9,1.6,4.8,1.6C728.1,824.2,730.1,823.4,731.5,821.8z"/>
	<path d="M764.7,824.6c0.1,0.1,0.2,0.2,0.2,0.4c0,0.2-0.2,0.3-0.7,0.3c-0.6,0-1.1,0-1.5-0.1c-0.5,0-1-0.1-1.3-0.1
		c-0.4,0-0.8,0-1.3,0.1c-0.4,0.1-0.9,0.1-1.5,0.1c-0.5,0-0.7-0.1-0.7-0.3c0-0.2,0.1-0.3,0.2-0.4c0.1-0.1,0.3-0.2,0.6-0.3
		c0.5-0.1,0.8-0.3,1.1-0.5c0.3-0.2,0.4-0.6,0.4-1v-7.4c0-0.7-0.1-1.2-0.4-1.7c-0.3-0.5-0.7-0.7-1.3-0.9c-0.1,0-0.7,0-1.9,0
		c-1,0-1.7,0-2.1,0c-0.6,0-1,0.1-1.2,0.2c-0.2,0.1-0.2,0.3-0.2,0.5v9.2c0,0.4,0.1,0.8,0.4,1c0.3,0.2,0.6,0.4,1.1,0.5
		c0.3,0.1,0.5,0.2,0.6,0.3c0.1,0.1,0.2,0.2,0.2,0.4c0,0.2-0.2,0.3-0.7,0.3c-0.6,0-1.1,0-1.5-0.1c-0.5,0-1-0.1-1.3-0.1
		c-0.4,0-0.8,0-1.3,0.1c-0.4,0.1-0.9,0.1-1.5,0.1c-0.5,0-0.7-0.1-0.7-0.3c0-0.2,0.1-0.3,0.2-0.4c0.1-0.1,0.3-0.2,0.6-0.3
		c0.5-0.1,0.8-0.3,1.1-0.5c0.3-0.2,0.4-0.6,0.4-1v-9.8c-0.1,0-0.3,0-0.7,0c-0.4,0-0.7,0-1.1-0.1h-3.4c-0.6,0-1,0-1.1,0.1
		c-0.2,0.1-0.3,0.2-0.3,0.5v9.3c0,0.4,0.1,0.8,0.4,1c0.3,0.3,0.6,0.4,1.1,0.5c0.3,0.1,0.5,0.1,0.6,0.2c0.1,0.1,0.2,0.2,0.2,0.3
		c0,0.3-0.2,0.4-0.7,0.4c-0.6,0-1.1,0-1.5-0.1c-0.5,0-0.9-0.1-1.3-0.1c-0.4,0-0.9,0-1.3,0.1c-0.4,0.1-0.9,0.1-1.6,0.1
		c-0.5,0-0.7-0.1-0.7-0.4c0-0.2,0.1-0.3,0.2-0.3c0.1-0.1,0.3-0.1,0.6-0.2c1-0.3,1.5-0.8,1.5-1.5v-9.8c-0.7,0-1.3,0-1.8-0.1
		c-0.1,0-0.2-0.1-0.3-0.2c-0.1-0.1-0.2-0.3-0.2-0.4c0-0.1,0.1-0.1,0.2-0.2c0.5-0.1,0.9-0.3,1.3-0.5c0.3-0.2,0.6-0.3,0.8-0.4
		c0-2,0.4-3.8,1.2-5.1c0.8-1.4,1.8-2.4,3-3c1.2-0.7,2.3-1,3.5-1c0.9,0,1.7,0.1,2.3,0.4c0.7,0.3,1.2,0.6,1.5,0.9
		c0.8-1,1.8-1.7,2.9-2.1c1.1-0.5,2.1-0.7,3.1-0.7c1.2,0,2.3,0.2,3.2,0.5c0.9,0.4,1.3,0.9,1.3,1.7c0,0.6-0.2,1.1-0.5,1.4
		c-0.3,0.3-0.8,0.5-1.2,0.5c-0.2,0-0.4-0.1-0.6-0.2c-0.2-0.1-0.3-0.3-0.5-0.5c-0.1-0.2-0.2-0.3-0.3-0.4c-0.4-0.5-0.8-0.9-1.2-1.2
		c-0.4-0.3-1-0.4-1.7-0.4c-0.8,0-1.5,0.2-2.2,0.7c-0.7,0.5-1.2,1.2-1.6,2.2c-0.4,1-0.6,2.2-0.6,3.7v1.9c0,0.3,0.1,0.4,0.2,0.5
		c0.1,0.1,0.4,0.1,0.7,0.2c1.5,0.2,2.9,0.2,4.1,0.2c1.4,0,2.2-0.1,2.6-0.2c0.1-0.1,0.3-0.2,0.5-0.3c0.2-0.1,0.4-0.2,0.6-0.4l0.7-0.5
		c0,0,0.1,0,0.2,0c0.2,0,0.2,0.1,0.2,0.2c0,0.1-0.1,0.6-0.2,1.5c-0.1,0.9-0.1,2.2-0.1,3.9v7.2c0,0.4,0.1,0.8,0.4,1
		c0.3,0.2,0.6,0.4,1.1,0.5C764.3,824.4,764.6,824.5,764.7,824.6z M750.5,811.2l0.1-0.1c0-2.3,0.4-4.2,1.2-5.8
		c-0.1-0.1-0.3-0.2-0.4-0.3c-0.2-0.2-0.3-0.3-0.4-0.4c-0.8-0.8-1.8-1.2-3-1.2c-1.2,0-2.2,0.5-2.9,1.6c-0.7,1.1-1,2.8-1,5v0.4
		c0,0.5,0.3,0.8,0.9,0.8H750.5z"/>
	<path d="M769.8,824.8c-0.9-0.6-1.7-1.4-2.2-2.4c-0.5-1-0.8-2.2-0.8-3.5c0-1.5,0.3-2.9,1-4.1c0.7-1.2,1.6-2.2,2.7-3
		c1.1-0.7,2.4-1.1,3.7-1.1c1.5,0,2.8,0.4,4,1.2c0.3,0.2,0.4,0.4,0.4,0.7c0,0.3-0.2,0.6-0.5,0.9c-0.3,0.3-0.7,0.5-1,0.5
		c-0.1,0-0.2,0-0.3-0.1c-0.1-0.1-0.2-0.2-0.4-0.3c-0.6-0.4-1.2-0.8-1.8-1.2c-0.6-0.3-1.1-0.5-1.5-0.5c-1.1,0-2.1,0.5-2.8,1.6
		c-0.7,1.1-1.1,2.5-1.1,4.2c0,1.1,0.2,2.1,0.7,3c0.5,0.9,1.1,1.6,1.9,2.1c0.8,0.5,1.7,0.8,2.7,0.8c0.7,0,1.3-0.1,1.7-0.3
		c0.5-0.2,1-0.6,1.6-1.2c0.1-0.1,0.2-0.2,0.3-0.2c0.1,0,0.2,0,0.3,0.1c0.1,0.1,0.1,0.2,0.1,0.3c0,0.3-0.2,0.6-0.5,1.1
		c-0.6,0.7-1.3,1.3-2.1,1.6c-0.9,0.4-1.8,0.6-2.9,0.6C771.8,825.7,770.8,825.4,769.8,824.8z"/>
	<path d="M783.2,824.7c-1-0.6-1.7-1.5-2.3-2.7c-0.5-1.2-0.8-2.5-0.8-4c0-1.3,0.3-2.5,0.9-3.7c0.6-1.1,1.4-2,2.5-2.7
		c1-0.7,2.1-1,3.4-1c1.4,0,2.5,0.4,3.4,1.2c0.9,0.8,1.3,1.9,1.3,3.2c0,0.7-0.3,1.1-1,1.1h-7.4c-0.3,0-0.6,0.1-0.7,0.3
		c-0.1,0.2-0.2,0.5-0.2,1c0,1.1,0.2,2.1,0.7,3c0.5,0.9,1.1,1.7,2,2.2c0.8,0.5,1.7,0.8,2.7,0.8c1.4,0,2.5-0.5,3.4-1.6
		c0.1-0.2,0.3-0.3,0.4-0.3c0.2,0,0.3,0.1,0.3,0.3c0,0.4-0.2,0.9-0.6,1.5c-0.5,0.7-1.2,1.2-2,1.6c-0.8,0.4-1.7,0.6-2.7,0.6
		C785.2,825.7,784.1,825.4,783.2,824.7z M786.5,815.1c1.1,0,2-0.1,2.6-0.2c0.2,0,0.3-0.3,0.3-0.8c0-0.7-0.3-1.3-0.9-1.7
		c-0.6-0.5-1.3-0.7-2.1-0.7c-0.5,0-1,0.2-1.6,0.5c-0.5,0.3-1,0.7-1.3,1.2c-0.3,0.5-0.5,0.9-0.5,1.4c0,0.2,0.1,0.3,0.4,0.3H786.5z"/>
</g>
<g>
	<g>
		<path d="M754.8,791.8c-1.2-0.7-2.1-1.6-2.7-2.7c-0.7-1.2-1-2.5-1-3.9c0-1.4,0.4-2.8,1.1-4.1c0.7-1.3,1.8-2.4,3-3.3
			c1.3-0.8,2.7-1.3,4.2-1.3c1.4,0,2.8,0.3,4,1c1.2,0.7,2.1,1.6,2.8,2.8c0.7,1.2,1,2.4,1,3.8c0,1.5-0.3,2.9-1,4.3
			c-0.7,1.3-1.6,2.4-2.9,3.2s-2.8,1.2-4.7,1.2C757.3,792.8,756,792.5,754.8,791.8z M763.4,789.6c0.5-1,0.8-2.5,0.8-4.5
			c0-1.2-0.2-2.4-0.7-3.5s-1.1-2.1-1.9-2.8c-0.8-0.7-1.7-1.1-2.8-1.1c-0.7,0-1.4,0.1-1.9,0.3c-0.5,0.2-1,0.6-1.4,1.2
			c-0.5,0.6-0.8,1.3-1,2.1c-0.2,0.8-0.3,1.8-0.3,2.9c0,1.3,0.2,2.5,0.7,3.6c0.5,1.1,1.1,2,1.9,2.7c0.8,0.7,1.7,1,2.7,1
			C761.4,791.7,762.7,791,763.4,789.6z"/>
		<path d="M773,791.8c-1.1-0.7-1.9-1.7-2.5-2.9c-0.6-1.3-0.9-2.7-0.9-4.4c0-1.4,0.3-2.7,1-4c0.7-1.2,1.6-2.2,2.7-2.9
			c1.1-0.7,2.3-1.1,3.6-1.1c1.5,0,2.8,0.5,3.7,1.3c1,0.9,1.5,2,1.5,3.4c0,0.8-0.4,1.2-1.1,1.2h-8c-0.4,0-0.6,0.1-0.7,0.3
			c-0.1,0.2-0.2,0.6-0.2,1.1c0,1.2,0.3,2.3,0.8,3.3c0.5,1,1.2,1.8,2.1,2.4c0.9,0.6,1.9,0.9,2.9,0.9c1.5,0,2.7-0.6,3.7-1.7
			c0.2-0.2,0.3-0.3,0.4-0.3c0.2,0,0.3,0.1,0.3,0.4c0,0.5-0.2,1-0.7,1.6c-0.6,0.7-1.3,1.3-2.2,1.7s-1.9,0.6-2.9,0.6
			C775.3,792.8,774.1,792.5,773,791.8z M776.6,781.3c1.2,0,2.1-0.1,2.8-0.2c0.2,0,0.3-0.3,0.3-0.8c0-0.7-0.3-1.4-1-1.9
			c-0.6-0.5-1.4-0.8-2.3-0.8c-0.6,0-1.1,0.2-1.7,0.5c-0.6,0.3-1.1,0.8-1.5,1.3s-0.6,1-0.6,1.5c0,0.3,0.2,0.4,0.5,0.4H776.6z"/>
		<path d="M784.1,792c0-0.2,0.1-0.3,0.2-0.4c0.1-0.1,0.4-0.2,0.7-0.3c0.6-0.2,1-0.3,1.2-0.5c0.3-0.2,0.4-0.5,0.4-0.9v-19.2
			c0-1.6-0.6-2.5-1.7-2.8c-0.1,0-0.2-0.1-0.2-0.2c-0.1-0.1-0.1-0.2-0.1-0.3c0-0.3,0.1-0.4,0.3-0.5c1-0.2,2.1-0.6,3.4-1.1l0.9-0.3
			c0.1-0.1,0.2-0.1,0.2-0.1s0.1,0,0.1,0.1s0.1,0.1,0.1,0.2c0,0.2,0,0.6-0.1,1.4c-0.1,0.8-0.1,2.1-0.1,3.7v19c0,0.5,0.1,0.8,0.4,0.9
			c0.3,0.2,0.7,0.3,1.2,0.5c0.3,0.1,0.5,0.2,0.7,0.3c0.1,0.1,0.2,0.2,0.2,0.4c0,0.2-0.3,0.3-0.8,0.3c-0.7,0-1.2,0-1.6-0.1
			c-0.6,0-1-0.1-1.4-0.1s-0.9,0-1.4,0.1c-0.4,0.1-1,0.1-1.6,0.1C784.4,792.4,784.1,792.3,784.1,792z"/>
	</g>
	<g>
		<path d="M691.1,758.1c0,1.1,0.1,2.7,0.3,4.9l-24.8-43h-18.4v72.8h13.3v-43.6c0-0.9-0.1-1.9-0.2-3.1c0-0.4-0.1-1.2-0.1-2.5
			l28.5,49.2h14.6v-43.7V720h-13.2V758.1z"/>
		<path d="M733.7,720v38.1c0,1.1,0.1,2.7,0.3,4.9l-24.8-43h-5v23.6l28.1,49.2h14.6V720H733.7z"/>
	</g>
</g>
</svg>
